<?xml version="1.0" standalone="no"?>
<!DOCTYPE svg PUBLIC "-//W3C//DTD SVG 20010904//EN"
 "http://www.w3.org/TR/2001/REC-SVG-20010904/DTD/svg10.dtd">
<svg version="1.0" xmlns="http://www.w3.org/2000/svg"
 width="3000.000000pt" height="2000.000000pt" viewBox="0 0 3000.000000 2000.000000"
 preserveAspectRatio="xMidYMid meet">

<g transform="translate(0.000000,2000.000000) scale(0.100000,-0.100000)"
fill="#000000" stroke="none">
<path d="M10063 13888 c-44 -62 -95 -135 -113 -163 -18 -27 -35 -52 -37 -55
-3 -3 -365 -7 -806 -10 l-802 -5 -67 -27 c-87 -35 -161 -83 -222 -144 -61 -61
-109 -135 -144 -222 l-27 -67 0 -3190 0 -3190 23 -67 c59 -170 202 -315 375
-380 l62 -23 797 -3 797 -3 24 -32 c13 -18 61 -86 107 -152 187 -269 428 -560
670 -809 1031 -1058 2353 -1732 3805 -1941 364 -52 488 -60 985 -60 525 0 747
15 1115 75 704 116 1300 310 1935 631 1735 875 3006 2491 3449 4386 101 430
157 871 168 1316 l6 247 -3332 0 -3331 0 0 1969 0 1970 -57 21 c-32 12 -79 26
-107 31 -29 5 -1071 9 -2621 9 l-2572 0 -80 -112z m1949 -1876 c215 -49 424
-136 591 -246 197 -130 362 -373 434 -643 25 -91 27 -113 27 -318 1 -177 -3
-237 -17 -305 -112 -524 -457 -877 -1003 -1025 -206 -57 -212 -57 -771 -62
l-523 -4 0 -720 0 -719 -400 0 -400 0 0 2035 0 2036 983 -4 c971 -3 983 -3
1079 -25z"/>
<path d="M10750 10720 l0 -690 399 0 c439 0 505 6 652 60 207 75 325 193 396
395 26 75 28 90 27 235 0 176 -14 249 -66 357 -46 95 -142 190 -240 237 -164
79 -312 96 -840 96 l-328 0 0 -690z"/>
</g>
</svg>
