<?xml version="1.0" standalone="no"?>
<!DOCTYPE svg PUBLIC "-//W3C//DTD SVG 20010904//EN"
 "http://www.w3.org/TR/2001/REC-SVG-20010904/DTD/svg10.dtd">
<svg version="1.0" xmlns="http://www.w3.org/2000/svg"
 width="3000.000000pt" height="2000.000000pt" viewBox="0 0 3000.000000 2000.000000"
 preserveAspectRatio="xMidYMid meet">

<g transform="translate(0.000000,2000.000000) scale(0.100000,-0.100000)"
fill="#000000" stroke="none">
<path d="M11170 13830 l0 -170 -1402 0 c-1541 0 -1463 3 -1591 -61 -119 -60
-216 -157 -276 -276 -66 -132 -61 128 -59 -3355 l3 -3163 23 -62 c64 -170 205
-311 375 -375 l62 -23 1430 -5 1430 -5 5 -1260 5 -1260 26 -67 c77 -199 234
-343 426 -393 50 -13 666 -15 5038 -15 5477 0 5027 -5 5160 60 133 65 253 198
306 341 l24 64 3 3098 2 3097 -2660 0 -2660 0 -2 1668 -3 1667 -497 3 -496 2
-7 68 c-10 107 -24 161 -67 250 -74 156 -224 279 -393 322 -77 20 -112 20
-2142 20 l-2063 0 0 -170z m-48 -2510 c186 -366 357 -709 380 -762 24 -54 45
-98 48 -98 3 0 33 60 68 133 35 72 218 417 409 765 l346 632 433 0 c239 0 434
-4 434 -8 0 -4 -270 -448 -600 -986 l-600 -979 31 -51 c17 -28 292 -472 610
-987 318 -514 581 -943 585 -952 6 -16 -27 -17 -457 -15 l-464 3 -323 605
c-178 333 -366 687 -418 788 -93 179 -95 182 -106 151 -15 -44 -14 -42 -447
-831 l-393 -718 -465 0 c-409 0 -464 2 -459 15 3 8 290 457 638 996 348 540
632 985 631 989 -1 3 -255 431 -563 951 -309 519 -573 963 -587 987 l-25 42
478 -2 479 -3 337 -665z"/>
</g>
</svg>
