<?xml version="1.0" standalone="no"?>
<!DOCTYPE svg PUBLIC "-//W3C//DTD SVG 20010904//EN"
 "http://www.w3.org/TR/2001/REC-SVG-20010904/DTD/svg10.dtd">
<svg version="1.0" xmlns="http://www.w3.org/2000/svg"
 width="543.000000pt" height="317.000000pt" viewBox="0 0 543.000000 317.000000"
 preserveAspectRatio="xMidYMid meet">

<g transform="translate(0.000000,317.000000) scale(0.100000,-0.100000)"
fill="#000000" stroke="none">
<path d="M1520 2493 c0 -1 13 -21 29 -45 28 -42 76 -97 244 -281 44 -49 88
-99 98 -111 15 -20 18 -50 21 -218 2 -147 0 -195 -9 -190 -6 4 -84 73 -173
155 -90 81 -170 147 -181 147 -39 0 -26 -16 102 -130 46 -41 106 -96 134 -121
27 -25 67 -60 87 -79 l37 -32 3 -189 c2 -104 1 -189 -2 -189 -3 0 -80 67 -170
150 -113 102 -172 149 -189 150 -37 0 -23 -15 159 -179 182 -164 200 -181 201
-194 6 -108 2 -367 -6 -367 -5 1 -84 68 -174 150 -90 83 -173 150 -183 150
-21 0 -24 -16 -4 -27 8 -4 34 -26 58 -48 23 -22 84 -76 133 -119 50 -44 113
-101 140 -128 l50 -47 575 -1 c316 -1 637 -1 713 0 l137 0 0 211 c0 197 1 213
21 240 37 52 45 54 329 59 l265 5 -1 170 c0 94 -1 181 -1 195 -1 14 1 126 3
250 l4 225 -36 40 c-20 22 -115 120 -211 217 l-175 178 -1014 2 c-558 2 -1014
2 -1014 1z m673 -152 c56 -54 121 -116 145 -137 24 -20 39 -41 35 -45 -4 -4
-69 -9 -143 -9 l-135 -2 -135 136 c-74 75 -136 141 -138 145 -2 5 58 10 133
10 l135 2 103 -100z m-54 -213 c45 0 81 -4 81 -8 0 -4 94 -8 209 -8 115 0 214
-3 220 -7 7 -4 18 -2 26 5 17 14 39 3 78 -38 22 -23 28 -37 25 -63 l-3 -34
-397 -3 -398 -3 0 39 c0 24 -6 45 -15 52 -9 7 -25 26 -36 41 l-20 28 23 -1
c13 -1 29 -6 36 -11 7 -6 17 -6 25 1 13 11 48 20 59 15 3 -2 42 -4 87 -5z
m1114 -33 c385 -7 631 -16 644 -24 10 -5 13 -21 11 -47 l-3 -39 -407 -3 -407
-4 -7 39 c-3 21 -12 48 -20 60 -17 26 -18 37 -4 28 6 -4 93 -8 193 -10z
m-1023 -224 c0 -109 -10 -161 -30 -161 -26 0 -30 20 -30 131 l0 99 30 0 30 0
0 -69z m120 15 c0 -29 -3 -81 -6 -115 -6 -49 -10 -61 -24 -61 -26 0 -30 20
-30 131 l0 99 30 0 c30 0 30 -1 30 -54z m742 -213 c23 -20 24 -86 2 -138 -8
-21 -13 -47 -10 -58 3 -11 -2 -33 -10 -48 -15 -30 -26 -33 -146 -44 -74 -7
-128 11 -128 43 0 10 3 13 8 6 16 -24 54 -34 131 -34 107 0 111 4 111 130 l0
98 -30 4 c-28 4 -30 3 -31 -31 -3 -108 -13 -131 -58 -131 -38 0 -51 17 -51 70
0 73 -8 90 -41 90 l-29 0 0 -84 c0 -47 -4 -88 -10 -91 -5 -3 -10 3 -10 14 0
12 -4 21 -8 21 -5 0 -9 6 -10 13 0 6 -4 42 -8 78 -11 109 -11 109 163 109 122
0 149 -3 165 -17z m-869 -267 c-2 -116 -5 -126 -32 -119 -20 5 -21 13 -21 107
0 57 3 106 7 110 4 4 16 6 28 4 19 -3 20 -9 18 -102z m119 -6 c-2 -109 -7
-125 -35 -114 -14 5 -17 23 -17 116 l0 109 28 -3 27 -3 -3 -105z m-115 -436
c-3 -59 -8 -108 -11 -111 -2 -3 -14 -2 -25 2 -20 6 -21 14 -21 111 l0 104 32
0 31 0 -6 -106z m123 64 c0 -24 -3 -73 -7 -110 -5 -63 -8 -68 -29 -68 -24 0
-24 1 -24 110 l0 110 30 0 c29 0 30 -2 30 -42z"/>
<path d="M2920 1531 c0 -18 18 -21 30 -6 10 13 9 15 -9 15 -11 0 -21 -4 -21
-9z"/>
<path d="M3480 1040 l0 -50 110 0 c63 0 110 -4 110 -10 0 -5 -49 -80 -110
-167 -106 -152 -110 -159 -110 -210 l0 -53 185 0 185 0 0 50 0 50 -115 0 c-63
0 -115 3 -115 6 0 4 52 81 115 172 108 155 115 169 115 214 l0 48 -185 0 -185
0 0 -50z"/>
<path d="M3950 820 l0 -270 60 0 60 0 0 270 0 270 -60 0 -60 0 0 -270z"/>
<path d="M4170 820 l0 -271 63 3 62 3 3 98 3 97 62 0 c83 0 129 14 165 51 54
56 61 155 15 218 -38 52 -85 66 -235 69 l-138 4 0 -272z m254 149 c31 -24 35
-66 9 -98 -14 -17 -31 -22 -73 -24 l-55 -2 -3 73 -3 72 49 0 c35 0 57 -6 76
-21z"/>
</g>
</svg>
